<?xml version="1.0" encoding="UTF-8" standalone="no"?>
<!DOCTYPE svg PUBLIC "-//W3C//DTD SVG 1.1//EN"
 "http://www.w3.org/Graphics/SVG/1.1/DTD/svg11.dtd">
<!-- Generated by graphviz version 2.38.0 (20140413.2041)
 -->
<!-- Title: Tree Pages: 1 -->
<svg width="409pt" height="186pt"
 viewBox="0.00 0.00 409.00 186.00" xmlns="http://www.w3.org/2000/svg" xmlns:xlink="http://www.w3.org/1999/xlink">
<g id="graph0" class="graph" transform="scale(1 1) rotate(0) translate(4 182)">
<title>Tree</title>
<polygon fill="white" stroke="none" points="-4,4 -4,-182 405,-182 405,4 -4,4"/>
<!-- 0 -->
<g id="node1" class="node"><title>0</title>
<path fill="#e58139" fill-opacity="0.701961" stroke="black" d="M389,-178C389,-178 12,-178 12,-178 6,-178 0,-172 0,-166 0,-166 0,-112 0,-112 0,-106 6,-100 12,-100 12,-100 389,-100 389,-100 395,-100 401,-106 401,-112 401,-112 401,-166 401,-166 401,-172 395,-178 389,-178"/>
<text text-anchor="start" x="8" y="-163.8" font-family="Helvetica,sans-Serif" font-size="14.00">inspections_zip_code_3month_type_canvass_sum ≤ 1.5</text>
<text text-anchor="start" x="157" y="-149.8" font-family="Helvetica,sans-Serif" font-size="14.00">gini = 0.353</text>
<text text-anchor="start" x="140" y="-135.8" font-family="Helvetica,sans-Serif" font-size="14.00">samples = 26005</text>
<text text-anchor="start" x="120.5" y="-121.8" font-family="Helvetica,sans-Serif" font-size="14.00">value = [20049, 5956]</text>
<text text-anchor="start" x="165.5" y="-107.8" font-family="Helvetica,sans-Serif" font-size="14.00">class = y</text>
<text text-anchor="start" x="227.5" y="-107.8" font-family="Helvetica,sans-Serif" baseline-shift="sub" font-size="14.00">0</text>
</g>
<!-- 1 -->
<g id="node2" class="node"><title>1</title>
<path fill="#e58139" fill-opacity="0.666667" stroke="black" d="M184.5,-64C184.5,-64 32.5,-64 32.5,-64 26.5,-64 20.5,-58 20.5,-52 20.5,-52 20.5,-12 20.5,-12 20.5,-6 26.5,-0 32.5,-0 32.5,-0 184.5,-0 184.5,-0 190.5,-0 196.5,-6 196.5,-12 196.5,-12 196.5,-52 196.5,-52 196.5,-58 190.5,-64 184.5,-64"/>
<text text-anchor="start" x="65" y="-49.8" font-family="Helvetica,sans-Serif" font-size="14.00">gini = 0.375</text>
<text text-anchor="start" x="48" y="-35.8" font-family="Helvetica,sans-Serif" font-size="14.00">samples = 21692</text>
<text text-anchor="start" x="28.5" y="-21.8" font-family="Helvetica,sans-Serif" font-size="14.00">value = [16266, 5426]</text>
<text text-anchor="start" x="73.5" y="-7.8" font-family="Helvetica,sans-Serif" font-size="14.00">class = y</text>
<text text-anchor="start" x="135.5" y="-7.8" font-family="Helvetica,sans-Serif" baseline-shift="sub" font-size="14.00">0</text>
</g>
<!-- 0&#45;&gt;1 -->
<g id="edge1" class="edge"><title>0&#45;&gt;1</title>
<path fill="none" stroke="black" d="M167.026,-99.7956C158.998,-90.6335 150.419,-80.8428 142.374,-71.6603"/>
<polygon fill="black" stroke="black" points="144.987,-69.332 135.765,-64.1172 139.722,-73.9451 144.987,-69.332"/>
<text text-anchor="middle" x="134.118" y="-85.3629" font-family="Helvetica,sans-Serif" font-size="14.00">True</text>
</g>
<!-- 2 -->
<g id="node3" class="node"><title>2</title>
<path fill="#e58139" fill-opacity="0.858824" stroke="black" d="M360.5,-64C360.5,-64 226.5,-64 226.5,-64 220.5,-64 214.5,-58 214.5,-52 214.5,-52 214.5,-12 214.5,-12 214.5,-6 220.5,-0 226.5,-0 226.5,-0 360.5,-0 360.5,-0 366.5,-0 372.5,-6 372.5,-12 372.5,-12 372.5,-52 372.5,-52 372.5,-58 366.5,-64 360.5,-64"/>
<text text-anchor="start" x="250" y="-49.8" font-family="Helvetica,sans-Serif" font-size="14.00">gini = 0.216</text>
<text text-anchor="start" x="237.5" y="-35.8" font-family="Helvetica,sans-Serif" font-size="14.00">samples = 4313</text>
<text text-anchor="start" x="222.5" y="-21.8" font-family="Helvetica,sans-Serif" font-size="14.00">value = [3783, 530]</text>
<text text-anchor="start" x="258.5" y="-7.8" font-family="Helvetica,sans-Serif" font-size="14.00">class = y</text>
<text text-anchor="start" x="320.5" y="-7.8" font-family="Helvetica,sans-Serif" baseline-shift="sub" font-size="14.00">0</text>
</g>
<!-- 0&#45;&gt;2 -->
<g id="edge2" class="edge"><title>0&#45;&gt;2</title>
<path fill="none" stroke="black" d="M234.338,-99.7956C242.453,-90.6335 251.125,-80.8428 259.258,-71.6603"/>
<polygon fill="black" stroke="black" points="261.929,-73.9237 265.939,-64.1172 256.689,-69.2824 261.929,-73.9237"/>
<text text-anchor="middle" x="267.451" y="-85.3714" font-family="Helvetica,sans-Serif" font-size="14.00">False</text>
</g>
</g>
</svg>
